<svg width="116" height="13" viewBox="0 0 116 13" fill="none" xmlns="http://www.w3.org/2000/svg">
<path d="M7.81417e-05 12.6V0.0699991H9.61808C12.6561 0.0699991 14.0701 0.951999 14.0701 2.8V3.626C14.0701 4.886 13.4961 5.712 12.6001 6.034C13.5521 6.258 14.3501 7.182 14.3501 8.568V9.394C14.3501 11.438 13.0761 12.6 10.6261 12.6H7.81417e-05ZM9.96808 9.94C10.7801 9.94 11.2701 9.814 11.2701 8.638C11.2701 7.434 10.7801 7.322 9.96808 7.322H3.08008V9.94H9.96808ZM9.96808 4.802C10.7801 4.802 11.1301 4.676 11.1301 3.766C11.1301 2.856 10.7801 2.73 9.96808 2.73H3.08008V4.802H9.96808ZM18.2728 9.338C18.2728 9.618 18.4408 9.8 18.7488 9.8H27.7228V12.6H16.5788C15.8228 12.6 15.1928 12.096 15.1928 11.312V-8.34465e-07H18.2728V9.338ZM35.3748 2.87L33.4848 7.602H38.4128L36.5228 2.87H35.3748ZM28.0668 12.67L33.0508 0.643999C33.2048 0.266 33.5128 0.0699991 33.9888 0.0699991H37.9088C38.3848 0.0699991 38.6928 0.266 38.8468 0.643999L43.8308 12.67H40.4288L39.5188 10.402H32.3788L31.4688 12.67H28.0668ZM48.0972 12.6C45.5772 12.6 44.3172 11.34 44.3172 8.82V3.85C44.3172 1.33 45.5772 0.0699991 48.0972 0.0699991H57.0572V2.87H49.0072C47.8172 2.87 47.3972 3.304 47.3972 4.494V8.19C47.3972 9.38 47.8172 9.8 49.0072 9.8H57.0572V12.6H48.0972ZM60.8432 12.67H57.7632V-8.34465e-07H60.8432V4.662H61.8512L67.7732 -8.34465e-07H72.3932L64.6232 5.992L72.4632 12.67H67.9832L61.8652 7.462H60.8432V12.67ZM72.8843 3.85C72.8843 1.33 74.1443 0.0699991 76.6643 0.0699991H83.5243C86.0443 0.0699991 87.3043 1.33 87.3043 3.85V8.82C87.3043 11.34 86.0443 12.6 83.5243 12.6H76.6643C74.1443 12.6 72.8843 11.34 72.8843 8.82V3.85ZM75.9643 8.162C75.9643 9.352 76.3843 9.8 77.5743 9.8H82.6143C83.8043 9.8 84.2243 9.352 84.2243 8.162V4.508C84.2243 3.318 83.8043 2.87 82.6143 2.87H77.5743C76.3843 2.87 75.9643 3.318 75.9643 4.508V8.162ZM102.429 8.96C102.429 11.48 101.169 12.74 98.6487 12.74H91.7887C89.2687 12.74 88.0087 11.48 88.0087 8.96V-8.34465e-07H91.0887V8.302C91.0887 9.492 91.5087 9.94 92.6987 9.94H97.7387C98.9287 9.94 99.3487 9.492 99.3487 8.302V-8.34465e-07H102.429V8.96ZM107.851 12.67V2.87H102.993V0.0699991H115.761V2.87H110.931V12.67H107.851Z" fill="#FF0000"/>
</svg>
